<?xml version="1.0" encoding="UTF-8"?>
<svg id="Layer_1" data-name="Layer 1" xmlns="http://www.w3.org/2000/svg" viewBox="0 0 629.62 87.57">
  <defs>
    <style>
      .cls-1 {
        fill: #2563eb;
      }
    </style>
  </defs>
  <g>
    <path class="cls-1" d="m140.31,62.64c-1.69,2.09-3.64,3.56-6,4.49-5.6,2.21-13,.5-16.56-4.6-4.06-5.81-4.41-12.21-2.75-18.87.82-3.29,2.42-6.18,5.11-8.23,4.07-3.1,8.62-4.09,13.62-2.45,2.39.78,4.4,2.1,5.96,4.07.13.17.24.38.6.4.27-.47-.05-.97-.05-1.44.01-5.03,0-10.05-.03-15.08,0-.8.17-1.21,1.13-1.16,1.59.09,3.19.08,4.78.01.95-.04,1.21.32,1.2,1.21-.02,3.73.01,7.47.01,11.2,0,11.31-.04,22.62-.02,33.93,0,1.03-.34,1.4-1.34,1.36-1.44-.05-2.89-.05-4.34-.04-.96,0-1.43-.35-1.36-1.39.07-1.06.02-2.13.02-3.42Zm.15-12.59c0-.38.03-.94,0-1.49-.26-4.39-1.8-7.96-6.24-9.69-1.4-.54-2.83-.59-4.27-.48-2.67.21-4.92,1.25-6.51,3.49-2.27,3.19-2.71,6.78-2.42,10.55.44,5.75,4.66,10.09,10.91,9.54,3.85-.34,7.3-3.15,8.09-6.92.33-1.59.51-3.21.45-5.01Z"/>
    <path class="cls-1" d="m100.94,37.69c0-5.41,0-10.76,0-16.12,0-1.77-.01-1.77,1.75-1.77,1.26,0,2.53.07,3.78-.02,1.1-.08,1.42.34,1.42,1.37-.02,3.81.02,7.61.02,11.42,0,11.16-.25,22.32-.04,33.47.02,1.05-.33,1.47-1.41,1.43-1.33-.05-2.67,0-4,.03-.99.03-1.41-.38-1.36-1.39.06-1.13.01-2.27.01-3.45-.67.31-1.19.89-1.72,1.42-6.75,6.68-19.09,4.77-22.81-5.02-2.4-6.32-2.49-12.7.48-18.92,3.25-6.83,11.32-9.31,16.94-7.18,2.39.9,4.49,2.06,6.09,4.06.22.28.42.62.86.67Zm.25,13.41c.1-1.15.02-2.26-.16-3.35-.69-4.05-2.28-7.48-6.56-8.93-4.17-1.41-9.34.26-11.25,4.58-1.84,4.15-2.28,8.32-.49,12.65,1.39,3.35,4.48,5.67,8.01,5.92,4.44.32,7.77-2.04,9.23-5.21.83-1.81,1.2-3.71,1.23-5.65Z"/>
    <path class="cls-1" d="m39.14,68.03c-5.85.02-10.65-1.42-15.13-4.02-.94-.54-1.74-1.25-2.52-1.99-.44-.42-.44-.79-.08-1.25,1.02-1.27,1.87-2.66,2.67-4.07.43-.75.8-.83,1.41-.23,2.3,2.32,5.11,3.78,8.24,4.61,4.17,1.11,8.32,1.19,12.2-.96,4.06-2.24,4.14-8.43,1.1-10.61-1.47-1.05-3.05-1.65-4.76-2.01-2.97-.62-5.98-1.1-8.91-1.84-3.91-.99-7.51-2.55-9.69-6.27-1.33-2.27-1.6-4.74-1.58-7.26.03-3.74,1.16-7.06,4.12-9.55,2.27-1.91,4.92-2.95,7.85-3.36,7.23-1.01,13.96-.01,19.85,4.65.6.48.85.88.32,1.54-1.06,1.33-2.12,2.66-3.16,4-.34.43-.53.51-1.02.07-4.87-4.33-10.6-5.35-16.71-3.63-4.22,1.18-5.68,4.89-4.28,8.92.92,2.65,3.36,3.83,5.94,4.53,2.68.73,5.5.77,8.18,1.56,2.26.67,4.57,1.14,6.69,2.3,5.87,3.21,7.02,9.52,5.61,14.71-1.06,3.88-3.69,6.33-7.11,8.05-3.09,1.56-6.41,2.27-9.25,2.1Z"/>
    <path class="cls-1" d="m186.02,55.42c0,3.47,0,6.95,0,10.42,0,1.61-.01,1.62-1.68,1.64-1.26.02-2.52-.02-3.78.03-1.13.05-1.38-.56-1.38-1.52,0-4.06-.04-8.13-.03-12.19,0-3.36.12-6.72-.61-10.04-.65-2.96-3.23-5.15-6.27-5.4-2.34-.19-4.57.25-6.46,1.57-2.41,1.68-3.62,4.15-3.8,7.07-.35,5.83-.04,11.67-.13,17.51-.05,3.36.45,2.86-2.86,2.91-.93.01-1.85-.03-2.78,0-.78.02-1.07-.36-1.07-1.08,0-.48,0-.96,0-1.44,0-13.49,0-26.97-.02-40.46,0-1.26-.02-2.51-.08-3.77-.03-.68.25-.94.9-.93,1.74.02,3.49.04,5.23.02.89,0,.77.63.77,1.15.02,3.58.02,7.17.03,10.75,0,1.59,0,3.18,0,4.77,0,.24-.16.56.15.7.33.15.43-.21.59-.38,2.17-2.3,4.72-4,7.9-4.4,5.19-.65,9.78.62,12.94,5.07,1.59,2.25,2.45,4.88,2.47,7.69.03,3.44,0,6.87,0,10.31,0,0,0,0-.01,0Z"/>
    <path class="cls-1" d="m285.57,37.55c2.18-2.3,4.63-3.97,7.62-4.75,4.91-1.28,9.46-.64,13.18,3.04,2.3,2.27,3.11,5.3,3.16,8.42.13,7.43.09,14.86.13,22.28,0,.58-.17.92-.82.91-1.63-.01-3.26-.01-4.89,0-.56,0-.83-.26-.87-.78-.04-.4-.04-.81-.04-1.22-.02-5.88-.04-11.75-.06-17.63,0-1.41-.29-2.79-.57-4.16-.83-4.14-4.54-5.79-8.09-5.44-5.39.53-7.93,4.12-8.5,8.99-.61,5.25-.17,10.56-.22,15.84-.01,1.14.02,2.29.07,3.44.04.7-.26,1.05-.94,1.08-1.71.07-3.41.04-5.11-.08-.59-.04-.73-.4-.73-.9,0-1,0-2,0-2.99-.03-13.9.09-27.79-.12-41.69-.03-2.15-.02-2.15,2.07-2.14,1.26,0,2.52.06,3.78,0,.74-.03.96.25.96.95-.02,3.84,0,7.69-.01,11.53,0,1.76,0,3.53,0,5.29Z"/>
    <path class="cls-1" d="m220.56,54.82c0,4-.02,7.77.01,11.54,0,.74-.18,1.1-.98,1.09-1.37-.01-2.74.01-4.11.08-.91.04-1.28-.36-1.28-1.22,0-.78-.04-1.55-.08-2.32-.01-.25.09-.56-.21-.69-.32-.13-.45.18-.6.37-4.11,4.8-13.01,5.58-18.02,2.43-.83-.52-1.62-1.12-2.1-1.95-2.43-4.13-3.14-8.34-.48-12.55,1.51-2.38,3.98-3.65,6.77-4.29,3.39-.78,6.82-.92,10.27-.76,1.07.05,2.15.03,3.22.11.88.06,1.26-.23,1.09-1.14-.1-.54-.12-1.1-.22-1.65-.74-4.01-2.46-5.38-6.89-5.85-3.86-.41-7.41.75-10.66,2.76-.81.5-1.18.35-1.52-.42-.52-1.14-.96-2.32-1.62-3.39-.4-.65-.19-1.16.5-1.54,4.35-2.42,9-3.52,13.97-3.31,1.75.08,3.43.46,5.11.99,4.63,1.45,6.88,4.88,7.59,9.35.66,4.17.09,8.41.27,12.38Zm-16.46,7.53c6.03,0,10.16-3.9,9.99-10.08-.02-.66-.23-.9-.92-.89-1.59.04-3.19-.01-4.78-.02-2.23-.01-4.45.1-6.63.6-1.94.44-3.23,1.61-3.68,3.57-.46,2.01-.07,3.76,1.55,5.22,1.37,1.25,2.98,1.56,4.48,1.59Z"/>
    <path class="cls-1" d="m256.21,49.2c0-3.62-.04-6.61.02-9.6.02-.94-.29-1.22-1.2-1.18-1.33.05-2.67-.04-4-.01-.68.01-.92-.27-.92-.91,0-1.18-.03-2.36-.09-3.54-.03-.6.18-.89.8-.9,1.41-.03,2.82-.17,4.22-.12.97.04,1.18-.33,1.16-1.21-.05-2.33,0-4.66-.04-6.98-.02-.83.18-1.21,1.1-1.17,1.55.07,3.11.06,4.67.01.89-.02,1.15.35,1.14,1.19-.05,2.44,0,4.88-.05,7.31-.01.71.18.95.94.94,2.67-.03,5.34.07,8.01.03.95-.01,1.22.33,1.17,1.22-.06.96-.07,1.92,0,2.88.07.92-.2,1.31-1.2,1.34-2.49.07-4.97.02-7.45-.04-1.45-.04-1.46-.02-1.45,1.46.03,5.61-.21,11.23,0,16.84.12,3.29,1.7,4.86,5,4.9,1.44.02,2.89-.06,4.33-.15.74-.05.98.24.97.95-.02,1.33.03,2.66.03,3.99,0,.45,0,.95-.62,1-3.24.24-6.5.7-9.7-.3-3.92-1.22-6.06-3.95-6.62-7.93-.5-3.53-.06-7.08-.21-10Z"/>
    <path class="cls-1" d="m234.34,38.07c.83-.83,1.49-1.72,2.31-2.47,2.69-2.48,5.98-3.24,9.51-3.38.6-.02.84.22.93.82.22,1.59.06,3.17.03,4.75-.01.68-.48.64-.93.63-1.45-.05-2.88.03-4.3.36-4.66,1.08-7,4.7-7.32,8.79-.45,5.83-.11,11.67-.15,17.5-.02,2.38.04,2.38-2.37,2.35-.85,0-1.71,0-2.56,0q-2.06.02-2.07-2.09c0-5.06.03-10.12.02-15.18,0-4.99-.06-9.97-.07-14.96,0-2.28.02-2.28,2.26-2.27,1.04,0,2.08,0,3.11.05,1.52.06,1.56.12,1.57,1.59,0,1.17,0,2.34,0,3.51Z"/>
    <path class="cls-1" d="m68.73,50.31c0,5.21,0,10.42,0,15.63,0,1.65-.09,1.74-1.78,1.67-1.22-.05-2.44-.15-3.67-.15-1.03,0-1.42-.37-1.42-1.45.03-9.97.01-19.95,0-29.92,0-.66,0-1.33-.01-1.99,0-.63.27-.96.93-.96,1.71,0,3.41,0,5.12-.02.74,0,.83.45.83,1.02,0,1.88,0,3.77,0,5.65,0,3.51,0,7.02,0,10.53Z"/>
    <path class="cls-1" d="m61.86,23.71c0-.92,0-1.84,0-2.76,0-.68.26-1,.99-.99,1.7.04,3.4.04,5.1,0,.66-.01.84.31.89.85.19,2.02.09,4.05.1,6.07,0,.59-.43.75-.9.76-1.81.04-3.62.05-5.43.07-.65,0-.68-.51-.7-.92-.04-1.03-.01-2.06-.01-3.09h-.04Z"/>
  </g>
  <g>
    <path class="cls-1" d="m575.37,49.68c-3.93,0-7.86,0-11.8,0-.56,0-1.06-.02-1.03.76.22,4.82,2.3,9.3,7.46,10.62,5.27,1.35,10.32.7,14.6-3.07.69-.61,1.07-.64,1.61.18,1.41,2.1,1.48,2.13-.65,3.62-3.88,2.7-8.22,3.82-12.93,3.47-4.25-.32-7.89-1.92-10.68-5.2-2.09-2.45-3.03-5.36-3.35-8.52-.25-2.48-.14-4.93.17-7.4.73-5.94,5.67-10.65,11.61-11.72,4.17-.75,8.12-.2,11.76,2.05,3.55,2.2,5.34,5.54,5.99,9.54.23,1.38.29,2.79.42,4.18.09,1-.28,1.48-1.39,1.47-3.93-.05-7.86-.02-11.79-.02,0,.02,0,.03,0,.05Zm-1.64-3.36v.09c3.26,0,6.52,0,9.78,0,1.19,0,1.36-.16,1.1-1.34-.32-1.48-.8-2.94-1.53-4.26-.9-1.63-2.12-2.96-3.83-3.88-2.3-1.22-4.72-1.53-7.22-1.2-2.4.32-4.7,1.05-6.45,2.89-1.78,1.87-2.66,4.12-2.91,6.67-.08.79.12,1.05.93,1.04,3.37-.03,6.74-.01,10.12-.01Z"/>
    <path class="cls-1" d="m358.41,52.3c-.18,3.72-.1,7.23.05,10.74.05,1.15-.33,1.64-1.45,1.63-.26,0-.52.04-.78.04-1.61,0-1.92-.33-2-1.93-.03-.64.37-1.59-.22-1.84-.59-.25-1.02.67-1.5,1.1-1.89,1.67-4.15,2.59-6.6,2.97-2.88.44-5.74.43-8.51-.78-5.23-2.29-7.47-8.76-4.63-13.72.97-1.69,2.48-2.82,4.33-3.46,2.08-.72,4.24-1.08,6.43-1.09,3.15-.02,6.3-.01,9.46.05,1.01.02,1.41-.3,1.34-1.32-.12-1.68.07-3.39-.77-4.98-1.42-2.68-3.88-3.66-6.65-3.99-3.89-.46-7.5.48-10.81,2.53-.52.32-.82.27-1.2-.2-1.71-2.14-1.53-3.27,1.02-4.25,5.28-2.02,10.67-2.51,16.07-.52,3.74,1.39,5.82,4.24,6.24,8.17.4,3.68.11,7.38.18,10.86Zm-10.74-3.05c0,.06,0,.13,0,.19-1.96,0-3.93-.05-5.89.02-1.99.07-3.86.65-5.11,2.28-2.53,3.28-.75,8.39,3.25,9.49,1.7.47,3.45.5,5.19.36,3.44-.27,6.21-1.55,8.05-4.7,1.32-2.26,1.05-4.61,1.09-6.99,0-.53-.28-.67-.79-.66-1.93.02-3.86,0-5.78,0Z"/>
    <path class="cls-1" d="m530.54,52.46c0,3.62-.03,7.24.02,10.86.02,1.03-.32,1.36-1.34,1.32-2.5-.11-2.67-.25-2.7-2.75,0-.34.24-.83-.23-.98-.35-.11-.53.33-.77.55-4.57,4.22-11.77,5.13-17.16,2.09-2.69-1.51-3.81-3.97-4.07-6.96-.55-6.35,3.68-9.93,9.79-10.66,3.63-.44,7.26.08,10.89.06,1.79,0,1.82.02,1.75-1.77-.06-1.7-.23-3.36-1.17-4.89-1.56-2.54-3.98-3.46-6.75-3.59-3.56-.18-6.9.73-9.96,2.55-.58.34-.86.33-1.23-.26-1.65-2.65-1.57-3.15,1.34-4.23,4.87-1.81,9.83-2.38,14.9-.73,3.78,1.23,6.43,4.61,6.68,8.55.23,3.62.07,7.24,0,10.86Zm-10.49-3.04c-2.29.05-4.6-.19-6.88.21-2.91.51-4.73,2.69-4.98,5.54-.29,3.4,2.22,5.65,4.61,6.13,1.54.31,3.08.39,4.64.31,3.03-.15,5.57-1.23,7.46-3.73,1.78-2.36,1.83-5.07,1.85-7.81,0-.65-.46-.66-.92-.66-1.93,0-3.85,0-5.78,0Z"/>
    <path class="cls-1" d="m423.15,48.66c-.1-4.13.84-7.96,3.56-11.15,4.33-5.07,9.94-6.31,16.29-5,4.67.96,7.91,3.84,10.07,7.86,1.77,3.3,2.04,6.99,1.65,10.68-.26,2.5-.81,4.93-2.27,7.09-3.61,5.31-8.74,7.38-14.99,7.1-4.55-.2-8.33-2.04-11.1-5.64-1.86-2.41-2.88-5.22-3.07-8.29-.06-.88-.08-1.77-.12-2.66Zm4.09.03c0,.81-.08,1.63.01,2.43.45,3.81,1.99,6.95,5.49,8.97,2.55,1.47,5.27,1.64,8.07,1.37,4.26-.4,7.26-2.7,8.86-6.58,1.4-3.41,1.54-6.92.67-10.62-1.09-4.65-5.62-8.56-10.51-8.68-4.76-.11-8.69,1.51-11.19,5.81-1.32,2.27-1.41,4.77-1.39,7.29Z"/>
    <path class="cls-1" d="m605.98,65.23c-4.38.09-8.29-.98-11.84-3.29-1.21-.79-1.25-1.02-.4-2.19.35-.48.79-.89,1.11-1.38.53-.83,1.07-.75,1.66-.11,2.97,3.19,6.79,3.63,10.84,3.3,1.82-.15,3.59-.39,5.14-1.53,1.66-1.21,2.44-2.84,2.14-4.78-.32-2.02-1.52-3.48-3.63-4.05-2.05-.55-4.13-.83-6.23-1.11-1.98-.26-4-.41-5.86-1.19-3.4-1.43-5.08-4.18-5.24-7.72-.15-3.43,1.71-5.89,4.7-7.45,3.46-1.79,7.11-2.1,10.92-1.3,2.69.56,5.21,1.44,7.38,3.16,1.18.93,1.15,1.36-.18,2.91-.8.93-1.39.97-2.33.03-2.5-2.5-5.64-3.06-8.99-2.96-1.72.05-3.37.42-4.89,1.28-1.93,1.09-2.88,2.86-2.51,5.33.28,1.89,1.57,3.02,3.36,3.6,2.52.82,5.18.88,7.77,1.27,1.76.26,3.51.57,5.12,1.4,3.83,1.99,5.3,5.53,4.06,9.92-1.04,3.68-3.77,5.49-7.29,6.38-1.63.41-3.29.52-4.81.49Z"/>
    <path class="cls-1" d="m405.61,65.24c-4.21,0-8.13-.98-11.62-3.43-1.24-.87-1.25-1.09-.28-2.25.33-.4.72-.76.97-1.21.49-.88,1.07-.88,1.65-.2,3.05,3.54,7.12,3.71,11.31,3.42,1.7-.12,3.36-.36,4.82-1.44,1.77-1.32,2.47-3.04,2.09-5.13-.35-1.93-1.56-3.18-3.47-3.8-2.78-.91-5.69-.96-8.54-1.32-2.85-.36-5.43-1.22-7.23-3.61-3.35-4.44-1.6-10.76,3.8-12.98,6.25-2.57,12.19-1.59,17.64,2.35.99.71.98,1.13.21,2.12-.02.03-.05.06-.07.09-1.44,1.78-1.63,1.73-3.29.15-1.51-1.44-3.42-2.2-5.49-2.4-2.89-.28-5.79-.42-8.35,1.39-1.75,1.24-2.5,2.95-2.1,5,.32,1.69,1.29,3,3.01,3.68,2.07.82,4.25.96,6.42,1.15,2.44.22,4.82.63,7.08,1.72,2.85,1.37,4.02,3.71,4.14,6.67.23,5.73-2.34,8.38-8.72,9.74-1.32.28-2.65.24-3.99.28Z"/>
    <path class="cls-1" d="m376.32,65.27c-4.33.1-8.01-1.2-11.4-3.43-1.29-.85-1.32-1.18-.24-2.3.51-.53.72-1.46,1.48-1.58.77-.12,1.02.83,1.59,1.23,3.19,2.22,6.76,2.64,10.51,2.35,1.88-.15,3.62-.58,5.06-1.95,1.44-1.37,1.91-3,1.51-4.83-.39-1.78-1.62-2.96-3.37-3.51-2.17-.68-4.42-.9-6.66-1.15-2.2-.25-4.41-.5-6.38-1.69-3.14-1.89-4.16-4.74-3.9-8.21.24-3.19,1.96-5.48,4.8-6.66,6.08-2.54,11.94-1.82,17.46,1.77.9.59,1.05,1.27.38,2.12-.11.15-.2.31-.31.46-1.17,1.63-1.25,1.64-2.78.38-3.6-2.95-9.72-3.5-13.61-1.28-1.82,1.04-2.19,2.71-2.14,4.54.06,1.81.81,3.2,2.61,4.01,2.62,1.18,5.41,1.14,8.16,1.47,2,.24,3.96.58,5.71,1.64,2.87,1.73,4.21,4.24,4,7.59-.21,3.38-1.74,5.89-4.84,7.36-2.48,1.18-5.1,1.77-7.64,1.64Z"/>
    <path class="cls-1" d="m463.87,48.66c.07,2.43.25,4.54,1.25,6.59,2.05,4.21,5.42,6.16,9.98,6.4,3.97.21,7.57-.67,10.63-3.31.34-.3.57-.27.81.09.16.25.31.5.5.73,1.3,1.6,1.33,1.63-.43,2.84-7.03,4.84-16.6,4.51-22.27-1.32-2.38-2.45-3.78-5.37-4.16-8.74-.42-3.71-.26-7.38,1.2-10.89,1.98-4.74,5.55-7.61,10.55-8.57,4.82-.92,9.45-.29,13.63,2.49.52.35,1.02.74,1.49,1.16.27.24.61.55.66.87.24,1.56-1.43,1.65-2.09,2.54-.41.55-.83.1-1.18-.26-4.37-4.56-10.63-4.51-15.33-1.85-2.83,1.6-4.09,4.48-4.91,7.5-.35,1.29-.31,2.64-.33,3.72Z"/>
    <path class="cls-1" d="m540.85,46.8c0-2.92-.05-5.84.03-8.75.03-1.08-.38-1.31-1.34-1.27-1.15.05-2.3-.05-3.44-.08-.83-.02-1.23-.4-1.14-1.25.03-.25-.03-.52-.03-.77.01-1.32.23-1.56,1.54-1.58,1.19-.03,2.37-.04,3.56,0,.72.02.95-.22.94-.96-.03-2.44.04-4.88.02-7.31,0-.96.36-1.32,1.32-1.28,2.77.11,2.73-.61,2.74,2.74,0,1.96.09,3.91.08,5.87,0,.7.26.89.93.87,2-.06,4-.03,6-.12,1.02-.04,1.46.35,1.38,1.34,0,.07,0,.15,0,.22q.01,2.08-2.07,2.12c-1.74.03-3.49.08-5.23.05-.83-.01-1.13.33-1.12,1.11.08,5.98-.21,11.97.18,17.95.2,3.02,2.85,5.48,5.9,5.57.89.03,1.78,0,2.67-.04.55-.03.85.17.87.74,0,.11.04.22.05.33.37,2.5.03,2.84-2.46,2.9-2.58.06-4.94-.7-7.05-2.05-2.65-1.68-3.93-4.33-4.11-7.37-.18-2.98-.04-5.98-.04-8.97-.06,0-.12,0-.18,0Z"/>
    <path class="cls-1" d="m498.05,48.89c0,4.72,0,9.45,0,14.17,0,1.6-.08,1.68-1.7,1.69-3.05,0-2.5.07-2.53-2.49-.09-9.12.08-18.23-.15-27.35-.05-1.84,0-1.86,1.85-1.86,2.35,0,2.47-.53,2.45,2.44-.03,4.47,0,8.93,0,13.4.03,0,.05,0,.08,0Z"/>
    <path class="cls-1" d="m493.73,24.4c.03-3.18-.33-2.82,2.95-2.81.77,0,1.15.31,1.12,1.13-.03.99,0,1.99.04,2.98.04.95-.27,1.5-1.33,1.34-.04,0-.07,0-.11,0q-2.6,0-2.67-2.64Z"/>
  </g>
</svg>