<?xml version="1.0" encoding="UTF-8"?>
<svg id="Layer_1" data-name="Layer 1" xmlns="http://www.w3.org/2000/svg" viewBox="0 0 595.28 595.28">
  <defs>
    <style>
      .cls-1 {
        fill: #2563eb;
      }
    </style>
  </defs>
  <path class="cls-1" d="m585.7,534.49h-201.49c.84-1.24,1.96-1.16,3-1.26,7.59-.72,14.78-2.93,21.27-6.81,13.72-8.21,18.96-22.21,12.57-38.29-5.86-14.74-11.95-29.38-17.98-44.05-3.48-8.46-6.89-16.96-10.59-25.33-6.26-14.15-11.95-28.53-17.96-42.78-5.61-13.3-11.23-26.6-16.87-39.89-5.92-13.95-11.61-27.99-17.4-41.99-5.39-13.05-10.73-26.14-16.41-39.07-5.05-11.49-9.43-23.25-14.39-34.78-4.49-10.44-8.53-21.06-12.78-31.6-.35-.86-.38-1.7-.15-2.55.52-1.9.95-3.85,1.69-5.67,6.27-15.35,11.9-30.93,17.68-46.46,5.48-14.72,11.27-29.32,16.62-44.09,3.36-9.28,7.18-18.38,10.85-27.55.59-1.48.94-3.28,3.17-3.33,2.23-.06,2.92,1.49,3.59,3.16,3.5,8.72,6.92,17.46,10.55,26.13,4.85,11.57,10.1,22.97,14.75,34.61,6.53,16.35,13.86,32.35,20.16,48.8,3.27,8.54,6.9,16.96,10.57,25.34,7.44,16.99,14.2,34.26,21.39,51.36,5.84,13.9,11.63,27.82,17.46,41.72,5.53,13.17,11.05,26.35,16.62,39.5,5.08,11.99,10.27,23.93,15.33,35.93,3.04,7.2,5.78,14.53,8.9,21.69,5.07,11.66,9.69,23.49,14.66,35.19,4.75,11.18,9.71,22.28,14.2,33.58,5.34,13.42,10.9,26.78,16.98,39.88,7.09,15.28,18.52,26.31,34.36,32.64,5.62,2.25,11.34,3.88,17.29,4.79.47.07.93.19,1.38.35.2.07.34.28,1,.85Z"/>
  <path class="cls-1" d="m152.59,60.49c-3.63.57-7.27,1.09-10.88,1.73-16.41,2.88-30.67,9.84-42.4,21.9-13.6,13.98-20.07,30.9-21.44,50.07-.98,13.78,1.24,26.99,7.43,39.35,5.4,10.78,12.73,20.12,22.05,27.88,12.29,10.22,26.29,17.32,40.98,23.38,13.14,5.42,26.48,10.32,39.81,15.23,15.26,5.62,30.43,11.48,45.55,17.47,5.87,2.33,11.52,5.19,17.54,7.17.89.29,1.68.87,2.51,1.32,1.4.76,1.44,1.76.87,3.18-3.2,7.9-6.43,15.8-9.43,23.78-3.06,8.13-6.23,16.2-9.51,24.24-2.95,7.23-5.63,14.58-8.52,21.84-2.45,6.16-4.97,12.3-7.57,18.4-1.27,2.98-2.76,5.86-3.62,9-.49,1.81-1.3,2.08-3.08,1.25-9.02-4.2-17.95-8.58-27.25-12.15-12.38-4.75-24.89-9.15-37.34-13.74-13.25-4.89-26.56-9.65-39.59-15.15-22.81-9.63-44.28-21.36-61.83-39.22-8.28-8.43-15.35-17.77-21.14-28.16-6.74-12.08-11.35-24.9-13.81-38.37-2.88-15.8-2.93-31.78-.53-47.7,2.03-13.45,6.32-26.28,12.28-38.43,10.06-20.5,24.68-37.2,43.88-49.69,10.96-7.13,22.73-12.57,35.16-16.77,15.04-5.08,30.48-7.41,46.22-8.34,1.17-.07,2.35,0,3.53,0,.03.18.07.36.1.54Z"/>
  <path class="cls-1" d="m189.21,536.87c7.94-1.55,15.74-2.79,23.18-5.4,16.02-5.63,29.02-15.54,39.44-28.84,12.16-15.51,17.74-33.37,17.85-52.9.15-25.95-10.48-47.06-29.69-64.13-4.02-3.58-8.24-6.91-12.64-9.99-1.61-1.13-2.05-2.3-1.24-4.2,3.68-8.73,7.28-17.49,10.82-26.27,4.61-11.42,9.09-22.89,13.71-34.31,4.82-11.93,9.31-23.99,13.8-36.05,1.22-3.27,1.33-3.13,4.27-1.44,8.95,5.14,17.22,11.18,24.85,18.12,8.11,7.37,15.32,15.46,21.27,24.71,6.68,10.37,11.72,21.51,15.28,33.25,5.82,19.19,7.05,38.9,4.4,58.67-1.63,12.19-4.51,24.2-9.25,35.69-5.64,13.68-12.91,26.33-22.2,37.87-7.84,9.74-16.69,18.41-26.87,25.59-12.67,8.95-26.09,16.47-41.03,21.29-13.55,4.37-27.37,6.89-41.42,8.59-1.25.15-2.53.09-3.79.1-.18,0-.37-.17-.74-.35Z"/>
  <path class="cls-1" d="m159.11,536.36c-6.59.19-13.17-.46-19.75-1.36-10.41-1.42-20.91-2.22-31.19-4.4-10.75-2.29-21.6-3.87-32.47-5.33-9.95-1.34-19.94-2.61-29.99-1.63-10.97,1.07-21.68,3.2-31.5,8.7-4.34,2.43-4.47,2.18-4.47-2.64-.05-48.62-.11-97.25-.16-145.87,0-3.83,0-7.66.28-11.52.92.52.88,1.35,1,2.04,1.6,9.6,4.13,18.99,6.76,28.32,4.17,14.75,9.56,29.1,17.1,42.51,7.29,12.96,15.53,25.25,25.57,36.34,11.04,12.19,23.05,23.25,36.88,32.11,9.23,5.91,19.1,10.71,29.37,14.74,9.96,3.9,20.35,5.64,30.74,7.57.61.11,1.21.3,1.82.45Z"/>
  <path class="cls-1" d="m165.44,60.62c6.05-.38,12.03-.24,17.99.5,10.03,1.24,20.07,2.4,30.1,3.65,6.11.76,12.19,1.85,18.31,2.42,12.16,1.14,24.27.96,36.31-1.64,7.22-1.56,14.34-3.19,20.77-6.96,2.08-1.22,2.11-.2,2.11,1.48-.03,21.27-.02,42.54-.02,63.81,0,21.51-.1,43.01.45,64.52.03,1.2.24,2.49-.96,4.04-1.1-3.35-2.27-6.25-3.01-9.25-3.53-14.23-8.66-27.9-14.81-41.16-8.27-17.83-18.85-34.22-32.96-48.02-11.92-11.66-25.74-20.43-41.56-26.21-9.47-3.46-19.18-5.12-29.04-6.45-.55-.07-1.11-.08-1.65-.19-.69-.14-1.36-.35-2.03-.53Z"/>
</svg>